<svg preserveAspectRatio="none" width="100%" height="100%" overflow="visible" style="display: block;" viewBox="0 0 22 22" fill="none" xmlns="http://www.w3.org/2000/svg">
<path id="Vector" d="M15 7.00001V12C15 12.7957 15.3161 13.5587 15.8787 14.1213C16.4413 14.6839 17.2044 15 18 15C18.7957 15 19.5587 14.6839 20.1213 14.1213C20.6839 13.5587 21 12.7957 21 12V11C21 8.74731 20.2394 6.56061 18.8414 4.79418C17.4434 3.02775 15.49 1.78508 13.2975 1.26752C11.1051 0.749956 8.80215 0.987816 6.76178 1.94256C4.72141 2.89731 3.06318 4.513 2.05574 6.52787C1.04831 8.54275 0.75069 10.8388 1.21111 13.0439C1.67154 15.249 2.86303 17.2341 4.59254 18.6775C6.32205 20.1209 8.48826 20.9381 10.7402 20.9966C12.9921 21.0552 15.1979 20.3516 17 19M15 11C15 13.2091 13.2091 15 11 15C8.79086 15 7 13.2091 7 11C7 8.79086 8.79086 7 11 7C13.2091 7 15 8.79086 15 11Z" stroke="var(--stroke-0, #334155)" stroke-width="2" stroke-linecap="round" stroke-linejoin="round"/>
</svg>
